<?xml version="1.0" encoding="utf-8"?>
<!-- Generator: Adobe Illustrator 21.0.2, SVG Export Plug-In . SVG Version: 6.00 Build 0)  -->
<svg version="1.1" id="Layer_1" xmlns="http://www.w3.org/2000/svg" xmlns:xlink="http://www.w3.org/1999/xlink" x="0px" y="0px"
	 viewBox="0 0 16 16" style="enable-background:new 0 0 16 16;" xml:space="preserve">
<style type="text/css">
	.st0{fill:#FF6600;}
</style>
<path class="st0" d="M13.7,2.3C12.1,0.8,10.1,0,8,0S3.9,0.8,2.3,2.3S0,5.9,0,8s0.8,4.1,2.3,5.7S5.9,16,8,16s4.1-0.8,5.7-2.3
	S16,10.1,16,8S15.2,3.9,13.7,2.3z M8,14.8c-3.7,0-6.8-3-6.8-6.8s3-6.8,6.8-6.8s6.8,3,6.8,6.8S11.7,14.8,8,14.8z M8.6,7.4h2.8v1.3
	H8.6v2.8H7.4V8.6H4.6V7.4h2.8V4.6h1.3V7.4z"/>
</svg>
